<svg width="21" height="21" viewBox="0 0 21 21" fill="none" xmlns="http://www.w3.org/2000/svg">
<path d="M17.8067 0.936423C17.9312 0.767926 18.0799 0.634067 18.2439 0.542686C18.408 0.451305 18.5842 0.404236 18.7621 0.404236C18.9401 0.404236 19.1162 0.451305 19.2803 0.542686C19.4443 0.634067 19.593 0.767926 19.7175 0.936423C20.2395 1.63573 20.2468 2.76576 19.7358 3.47717L8.94393 20.3913C8.82141 20.5697 8.67272 20.713 8.50696 20.8126C8.34121 20.9122 8.16187 20.9659 7.97992 20.9704C7.79798 20.9749 7.61725 20.9302 7.44879 20.839C7.28033 20.7477 7.12768 20.6118 7.00019 20.4397L0.433451 11.6172C0.180194 11.2748 0.0383301 10.8143 0.0383301 10.3348C0.0383301 9.85518 0.180194 9.39471 0.433451 9.05229C0.558008 8.88379 0.706667 8.74993 0.870726 8.65855C1.03479 8.56717 1.21095 8.5201 1.3889 8.5201C1.56685 8.5201 1.74301 8.56717 1.90707 8.65855C2.07112 8.74993 2.21978 8.88379 2.34434 9.05229L7.91457 16.5366L17.7702 0.989657C17.7815 0.970957 17.7937 0.95318 17.8067 0.936423Z" fill="#00B81D"/>
</svg>
